<mxfile host="app.diagrams.net" modified="2022-05-03T14:39:30.834Z" agent="5.0 (Windows NT 10.0; Win64; x64) AppleWebKit/537.36 (KHTML, like Gecko) Chrome/101.0.4951.41 Safari/537.36 Edg/101.0.1210.32" etag="9PgyJXHKFdbSNbPFNFXb" version="17.5.0" type="github">
  <diagram id="kme3ts6XRi7ECfWK1hZ7" name="Page-1">
    <mxGraphModel dx="1038" dy="579" grid="1" gridSize="10" guides="1" tooltips="1" connect="1" arrows="1" fold="1" page="1" pageScale="1" pageWidth="850" pageHeight="1100" math="0" shadow="0">
      <root>
        <mxCell id="0" />
        <mxCell id="1" parent="0" />
        <mxCell id="peVNcg3AwNaYBxfUQ1ln-3" value="" style="edgeStyle=orthogonalEdgeStyle;rounded=0;orthogonalLoop=1;jettySize=auto;html=1;" edge="1" parent="1" source="peVNcg3AwNaYBxfUQ1ln-1" target="peVNcg3AwNaYBxfUQ1ln-2">
          <mxGeometry relative="1" as="geometry" />
        </mxCell>
        <mxCell id="peVNcg3AwNaYBxfUQ1ln-1" value="start" style="rounded=1;whiteSpace=wrap;html=1;" vertex="1" parent="1">
          <mxGeometry x="80" y="30" width="90" height="20" as="geometry" />
        </mxCell>
        <mxCell id="peVNcg3AwNaYBxfUQ1ln-5" value="" style="edgeStyle=orthogonalEdgeStyle;rounded=0;orthogonalLoop=1;jettySize=auto;html=1;" edge="1" parent="1" source="peVNcg3AwNaYBxfUQ1ln-2" target="peVNcg3AwNaYBxfUQ1ln-4">
          <mxGeometry relative="1" as="geometry" />
        </mxCell>
        <mxCell id="peVNcg3AwNaYBxfUQ1ln-2" value="restore the truck hp and service time" style="rounded=0;whiteSpace=wrap;html=1;" vertex="1" parent="1">
          <mxGeometry x="65" y="100" width="120" height="60" as="geometry" />
        </mxCell>
        <mxCell id="peVNcg3AwNaYBxfUQ1ln-7" value="" style="edgeStyle=orthogonalEdgeStyle;rounded=0;orthogonalLoop=1;jettySize=auto;html=1;" edge="1" parent="1" source="peVNcg3AwNaYBxfUQ1ln-4" target="peVNcg3AwNaYBxfUQ1ln-6">
          <mxGeometry relative="1" as="geometry" />
        </mxCell>
        <mxCell id="peVNcg3AwNaYBxfUQ1ln-4" value="reset the mech man trigger&amp;nbsp;" style="whiteSpace=wrap;html=1;rounded=0;" vertex="1" parent="1">
          <mxGeometry x="65" y="210" width="120" height="60" as="geometry" />
        </mxCell>
        <mxCell id="peVNcg3AwNaYBxfUQ1ln-6" value="end" style="ellipse;whiteSpace=wrap;html=1;rounded=0;" vertex="1" parent="1">
          <mxGeometry x="65" y="310" width="120" height="60" as="geometry" />
        </mxCell>
      </root>
    </mxGraphModel>
  </diagram>
</mxfile>
